<svg>


  <g id="xing-square" transform="scale(1 -1) translate(0 -1536)"><path d="M685 771q0 1 -126 222q-21 34 -52 34h-184q-18 0 -26 -11q-7 -12 1 -29l125 -216v-1l-196 -346q-9 -14 0 -28q8 -13 24 -13h185q31 0 50 36zM1309 1268q-7 12 -24 12h-187q-30 0 -49 -35l-411 -729q1 -2 262 -481q20 -35 52 -35h184q18 0 25 12q8 13 -1 28l-260 476v1 l409 723q8 16 0 28zM1536 1120v-960q0 -119 -84.5 -203.5t-203.5 -84.5h-960q-119 0 -203.5 84.5t-84.5 203.5v960q0 119 84.5 203.5t203.5 84.5h960q119 0 203.5 -84.5t84.5 -203.5z"/></g>

      <g id="twitter" transform="translate(-6.05575,6.0232474)"><path id="chat" d="M318.56,56.437c-172.59,0-312.5,139.9-312.5,312.5v312.5c0,138.06,112.06,250,250,250,0-69.094,56.031-125,125-125h250c207.16,0,375-167.97,375-375s-167.84-375-375-375h-312.5zm0,125,312.5,0c137.94,0,250,112.06,250,250s-112.06,250-250,250h-250c-81.531,0-154.19,39.312-199.84,100.09-30.375-22.938-50.156-59.312-50.156-100.09v-312.5c0-103.41,84.219-187.5,187.5-187.5z"/></g>

</svg>
